<svg width="52" height="52" viewBox="0 0 52 52" fill="none" xmlns="http://www.w3.org/2000/svg">
<path d="M26 51C39.8071 51 51 39.8071 51 26C51 12.1929 39.8071 1 26 1C12.1929 1 1 12.1929 1 26C1 39.8071 12.1929 51 26 51Z" stroke="white"/>
<path fill-rule="evenodd" clip-rule="evenodd" d="M12.1111 33.528V16.6858C12.1111 14.8623 14.3158 13.9491 15.6052 15.2385L26.0731 25.7064L36.541 15.2385C37.8304 13.9491 40.0351 14.8623 40.0351 16.6858V33.528H36.9649V19.4929L28.4123 28.0456L33.8948 33.528H29.2164L26.0731 30.3847L22.9299 33.528H18.2515L23.734 28.0456L15.1813 19.4929V33.528H12.1111Z" fill="white"/>
</svg>
